<svg width="259.3" height="181.9" viewbox="0 0 259.3 181.9" xmlns="http://www.w3.org/2000/svg">
 <g fill="#fff">
   <path d="m5.1,93.900001c-0.1,1.7 0,3.3 0.1,4.9c0.1,1.6 0.3,3.1 0.3,4.7c0,3.1 0.6,6.2 0.8,9.2c0.2,3.1 -0.1,6.1 0,9.2c0.1,1.5 0.2,2.9 0.1,4.4c-0.1,0.8 0,1.5 0,2.3c0,0.8 -0.1,1.6 -0.1,2.4c0,3.1 0,6.2 -0.1,9.3c0,3 -0.2,6.3 -0.2,9.5c0,5.1 0.6,9.8 0.5,14.3c0,1.7 0,3.2 0.5,4.7c0.2,0.7 0.5,1.2 0.9,1.7c0.2,0.2 0.4,0.6 0.6,0.7c0.2,0.1 0.3,0.1 0.4,0.2c0.6,0.4 1.2,1.1 1.8,1.5c0.5,0.4 1,0.8 1.6,1.1c1.1,0.8 2.4,1.1 3.8,1.4c1.4,0.3 3,0.6 4.4,0.7c4.7,0.3 9.9,0.5 14.6,0.1c4.3,-0.4 9.1,-0.3 13.9,-0.4c2.3,0 4.7,-0.2 7.2,-0.3c0.9,0 1.7,-0.2 2.6,-0.1c3.2,0.2 6.4,-0.4 9.6,-0.5c1.6,-0.1 3.1,-0.1 4.7,-0.2c3.1,-0.1 6.2,-0.6 9.2,-0.6c1.6,0 3.1,0.1 4.7,0c2.9,-0.1 6.1,0.1 9.3,0.1c9.6,0 19.6,0.4 28.9,0c7.6,-0.3 16.2,-0.4 24.3,-0.2c1.5,0 3,-0.1 4.5,-0.1c1.6,0 3.3,0.3 4.9,0.4c1.6,0.1 3.2,0 4.7,-0.1c2.9,-0.1 6.3,0.5 9.6,0.5c3.3,0 6.6,0.1 9.3,0.1c3.2,0 6.1,-0.1 9.3,0c3,0.1 6.4,-0.2 9.6,-0.2c1.6,0 3.3,0 4.8,-0.1c1.5,-0.1 7.7,0.2 9.3,0.2c1.6,0 3.2,-0.1 4.9,0c3.3,0.3 6.4,0 9.7,0.1c3.2,0.1 6.2,-0.5 8.8,-1.3c1.5,-0.4 2.8,-0.7 3.9,-1.3c1.2,-0.6 2.2,-1.2 3.1,-2.2c0.8,-1 1.5,-1.9 2.1,-3.2c0.5,-1.2 0.9,-2.4 1.2,-4.1c0.2,-1.4 0.3,-2.9 0.4,-4.5c0.1,-1.5 0.1,-3.2 0.3,-4.8c0.5,-6.1 0.5,-13 0.4,-19.9c0,-3.4 0,-6.5 0.1,-9.6c0,-2.9 0,-5.7 0.1,-8.9c0.1,-3.2 0.4,-6.4 0.5,-9.7c0.1,-2.4 0.1,-4.7 0.1,-6.9c0,-0.9 0.1,-1.7 0.1,-2.5c0,-1.6 -0.1,-3.2 0.1,-4.8c0.5,-4.7 0.4,-9.2 0.6,-13.5c0.2,-3.2 -0.1,-6.3 -0.1,-9.7c0,-6.1 -0.1,-11.9 0.2,-17.9c0.5,-8.5 -0.7,-15.9 -0.8,-24.1c-0.1,-3.2 -0.4,-6.5 -1.1,-9.1c-1,-3.8 -4,-5.7 -6.9,-7.6c-0.3,-0.2 -0.6,-0.4 -0.8,-0.5c-1.9,-0.7 -4.1,-1.3 -6.4,-1.4c-0.4,0 -1.9,-0.1 -2.3,-0.2c-1.6,-0.2 -8.1,-0.5 -9.7,-0.6c-4.5,-0.2 -9,-0.2 -13.4,-0.4c-0.1,0 -0.2,0 -0.3,0c-1.8,0.1 -3.7,-0.1 -5.6,-0.1c-3.3,0 -6.7,0.3 -10,0.3c-3.2,0 -6.4,0.3 -9.6,0.4c-10.2,0.2 -19.9,0.7 -29.3,1.2c-3.3,0.2 -6.7,0.3 -10,0.2c-3.2,-0.1 -6.5,-0.6 -9.8,-0.6c-3.4,0 -6.8,-0.1 -10.2,-0.1c-1.7,0 -3.3,0 -5,-0.1c-1.6,-0.1 -3.2,0.1 -4.7,0c-3.2,-0.2 -6.4,-0.5 -9.6,-0.5c-6.3,0.1 -12.8,-0.5 -19.3,-0.4c-3.2,0 -6.4,0.3 -9.7,0.3c-3.3,0 -6.6,-0.2 -9.9,-0.2c-3.2,0 -6.3,-0.1 -9.4,-0.2c-3.3,-0.2 -6.6,-0.4 -9.9,-0.4c-1.6,0 -3.1,0 -4.7,-0.3c-1.2,-0.2 -2.4,-0.2 -3.7,-0.3c-0.3,0 -0.8,0.1 -1.1,-0.3c-0.9,0.1 -2.3,0.1 -3.3,0.1c-3.1,0.2 -6.1,0.7 -8.9,1.4c-3.7,0.9 -6.7,2.5 -9.7,4.3c-1.4,0.8 -2.9,1.8 -4.2,2.8c-2.1,1.5 -3.2,3.9 -4.2,6.4c-0.3,0.9 -0.6,1.7 -0.8,2.7c-0.2,0.9 -0.5,1.8 -0.8,2.7c-0.3,0.9 -0.3,1.9 -0.7,2.9c-0.4,3 -1.1,6 -1,9.1c0.2,4.7 0.2,9.5 0.3,13.8c0,1.6 0,3.1 0,4.7c0,6.4 -0.2,12.2 -0.3,18.4c0,1.6 0.1,3.2 0,4.8c0.1,5.1 0.1,10.1 -0.1,14.8m3.1,-13.8c0.1,-2 0.2,-3.9 0.3,-5.9c0,-2 0,-4.1 0.1,-6.3c0.2,-4.3 0.1,-6.8 0.1,-11.1c0,-4 -0.1,-7.6 -0.1,-11.8c0,-2.1 -0.3,-4.2 -0.1,-6.2c0.1,-1 0.2,-2 0.3,-3c0.1,-0.9 0.2,-1.9 0.4,-2.7c0.9,-3.6 1.5,-7.1 2.9,-10c0.7,-1.5 1.4,-3 2.4,-4.1c1,-1.2 1.9,-2.3 3.1,-3.4c2.2,-2 5.6,-3.2 8.8,-4.2c1.7,-0.5 3.5,-0.9 5.4,-1.2c1.8,-0.2 3.7,-0.4 5.7,-0.6c3.8,-0.4 7.9,-0.3 11.8,-0.8c1.9,-0.3 3.9,0 5.8,0.1c1.9,0.1 3.9,0.3 5.9,0.4c6.1,0.3 11.9,-0.3 17.6,-0.3c5.8,0 11.8,0.5 17.8,0.8c3.8,0.1 8.3,0 12.5,0c4.3,0 8.4,-0.1 12.2,-0.1c3.9,0 8.3,0 12.3,0.2c3.9,0.2 7.8,0.5 11.5,0.6c5.8,0.1 11.9,0.3 18,0.3c1,0 2,-0.1 3,-0.2c3,-0.1 6,-0.5 9,-0.6c1.3,-0.1 2.6,-0.3 4.2,-0.2c0.5,0 0.9,0.2 1.4,0.2c3.9,0.1 7.7,-0.5 11.7,-0.6c2,-0.1 4,-0.1 5.9,-0.2c2,-0.1 4.1,-0.3 6.2,-0.3c0.9,0 1.9,0 2.9,-0.1c2.9,-0.1 6.1,-0.2 9,-0.2c4.8,0 8.9,0.4 14.1,0.7l6.1,1.1l4.6,1.2l3.6,2c1.7,1.5 2.1,2.7 2.3,3c1.3,2.4 1.9,5.8 1.9,9.4c0,3.6 -0.2,7.9 -0.1,11.5c0.2,3.9 0.7,7.8 0.3,11.7c-0.4,4.1 -0.3,8.2 -0.2,12.2c0.1,3.7 -0.1,7.8 0.1,11.8c0.2,4 0,7.8 0.2,11.6c0.1,2.6 -0.3,4.5 -0.1,7c0,0.4 0,1.2 0,1.6c0,0.9 -0.2,2.4 -0.2,3.4c-0.1,2 -0.1,4 -0.2,6c-0.2,3.8 -0.4,7.5 -0.7,11.5c-0.5,5.8 -0.5,11.9 -0.5,18c0,4.9 0,9.6 0,14.3c0,1 -0.2,2 -0.2,3.1c0,1 -0.2,1.9 -0.2,2.8c0,0.9 -0.2,1.8 -0.3,2.7c-0.1,1 -0.1,1.9 -0.2,2.8c-0.1,1 -0.2,1.9 -0.3,2.8c-0.1,1.3 -0.7,2.7 -1.3,3.6c-0.2,0.3 -0.4,0.7 -0.6,1.1c-0.2,0.3 -0.5,0.6 -0.8,0.9c-0.2,0.3 -0.4,0.7 -0.7,0.9c-0.5,0.6 -1.1,1.1 -1.7,1.6c-1.8,1.5 -4.3,2.2 -7.2,2.6c-0.4,0 -0.9,0.2 -1.3,0.3c-0.5,0 -0.9,0 -1.4,0.1c-0.9,0.2 -1.9,0 -2.8,0.1c-1,0.1 -1.9,0.1 -2.7,0.1c-1.9,-0.2 -3.8,0 -5.6,0.1c-3.8,0.2 -7.6,-0.6 -11.6,-0.5c-1.5,0 -3.1,0.1 -4.5,0.1c-0.5,0 -0.9,-0.1 -1.4,-0.2c-0.9,-0.1 -2,0 -3.1,0c-3.1,0 -6.2,0.1 -9.1,0.1c-4,0 -7.8,-0.1 -11.8,-0.2c-2,0 -3.9,-0.1 -5.8,0c-1,0.1 -2,-0.1 -3,-0.2c-2.7,-0.1 -5.7,0.3 -8.6,0.6c-2.1,0.2 -4.2,0.1 -6.3,0.1c-4,0 -8.1,-0.1 -12.2,-0.2c-11.9,-0.2 -24.4,0.2 -36.2,0.1c-4,-0.1 -8.1,-0.1 -12.1,0c-4,0.1 -8.1,0.2 -12.1,0.4c-2,0.1 -4,-0.1 -5.9,0c-2,0.1 -4,0.2 -6,0.2c-1.9,0 -3.9,0 -5.8,0.1c-2,0 -3.9,0.3 -5.9,0.3c-1.9,0 -3.9,0.1 -5.8,0.2c-1.9,0.1 -3.8,0.1 -5.7,0.3c-2,0.2 -3.9,0.3 -5.9,0.4c-1.9,0.1 -3.9,0 -5.8,0.1c-4.1,0 -8.1,0 -12.1,-0.2c-1,0 -2.1,-0.1 -3,-0.3c-0.4,-0.1 -0.8,-0.3 -1.3,-0.4c-0.5,-0.1 -0.9,-0.1 -1.4,-0.2c-0.4,-0.1 -0.8,-0.4 -1.2,-0.5c-0.4,-0.1 -0.9,-0.1 -1.3,-0.3c-1.6,-0.5 -2.8,-1.6 -3.8,-2.7c-0.5,-0.6 -0.9,-1.2 -1.2,-2c-0.3,-0.8 -0.3,-1.8 -0.4,-2.8c-0.1,-1.8 -0.4,-3.7 -0.4,-5.7c0,-2.8 -0.5,-5.8 -0.4,-8.4c0.1,-3.9 0.2,-7.8 0.2,-11.6c0,-1 0,-2.1 0.1,-3.1c0.1,-1 0,-2 0.1,-3c0.1,-2.9 0,-5.5 -0.1,-8.5c0,-0.9 -0.2,-1.9 -0.2,-2.9c-0.1,-1.9 -0.1,-3.9 -0.3,-5.8c-0.2,-2 -0.3,-4 -0.2,-6c0.1,-3.9 -0.6,-7.5 -0.7,-11.5c0,-6.7 0.2,-12.8 0.3,-17.9" />
   <path d="m121.2,111.600001c-0.8,-0.2 -1.4,0.4 -2,0.7c-1.3,0.6 -2.4,1.3 -3.7,2.1c-0.3,0.2 -1.6,1 -1.9,0.9c-0.2,0 -0.7,-0.4 -1.2,-0.7c-1.3,-0.7 -2.3,-1.5 -3.5,-2.2c-0.8,-0.4 -1.6,-0.9 -2.4,-1c-1.3,-0.1 -1.9,0.7 -2.1,1.7c-0.4,1.7 0.6,1.9 1.5,2.6c0.3,0.2 0.6,0.4 0.9,0.6c0.3,0.2 0.7,0.3 0.9,0.7c-1.9,0.6 -4,0.9 -6,1.7c-0.4,0.2 -1.6,0.6 -1.5,1.1c0,0.3 0.7,0.5 1.2,0.6c1.4,0.1 2.9,-0.3 4.4,-0.3c0.9,0 1.8,0.1 2.5,0.1c0.3,0 0.7,-0.2 0.9,0.1c-1.3,1.5 -3.1,2.8 -3.2,5.3c0.8,0 1.4,-0.7 2.1,-1.1c0.7,-0.4 1.3,-0.9 2,-1.3c1,-0.6 2.1,-1.1 3.2,-1.7c0.4,-0.2 0.7,-0.6 1.1,-0.6c0.4,0 1.1,0.4 1.7,0.6c1.8,0.6 3.6,1 5.3,1.6c2.4,0.8 4.4,1.6 6.6,2.4c0,-0.9 -1,-1.2 -1.6,-1.6c-1.3,-0.8 -2.4,-1.7 -3.7,-2.5c-0.6,-0.4 -1.4,-0.7 -1.8,-1.3c1.9,-0.4 4.4,-1.2 6.3,-1.4c0.4,0 1.3,0.1 1.2,-0.4c-0.1,-0.5 -1.6,-0.4 -2.3,-0.4c-1.8,-0.2 -3.3,-0.5 -5.1,-0.6c-0.8,-0.1 -1.7,-0.1 -2.4,-0.4c0.7,-1.3 1.5,-2.6 2.2,-3.9c0,-0.5 0.5,-0.8 0.4,-1.4" />
   <path d="m173.2,123.200001c1.5,0.1 3.6,-0.5 3.6,-1.3c0,-0.4 -0.9,-0.8 -1.2,-1.1c-0.6,-0.6 -1.2,-1.6 -1.1,-2.8c0.1,-0.7 0.7,-1.3 1.1,-1.8c1.2,-1.6 3,-2.6 4.1,-4.1c-0.5,-0.8 -1.7,-0.1 -2.7,-0.1c-0.3,0 -0.6,0 -0.8,0c-0.6,0.1 -1.8,0.8 -2.6,1.3c-1.3,0.9 -2.8,1.9 -3.6,3.2c-0.5,0.9 -1,2 -0.8,3.2c0.3,1.9 1.9,3.3 4,3.5" />
   <path d="m162.2,139.300001c-0.9,1.9 -2.1,4.1 -3.2,6.1c-0.5,1 -1,1.9 -1.7,2.9c-0.6,0.9 -1.4,2 -2.2,2.4c-0.5,0.3 -1.4,0.5 -2.1,0.3c-0.7,-0.4 -1,-0.9 -0.8,-2.1c0.1,-1 0.7,-2.1 1.2,-3.2c0.9,-2 1.7,-4.1 2.7,-6.1c1.1,-2.1 2.3,-4.8 1.6,-7.2c-0.1,-0.5 -0.6,-1.5 -0.9,-1.8c-1.2,-1.4 -3.9,-2.3 -6.5,-1.3c-0.7,0.3 -1.2,0.8 -1.9,1.1c-0.6,0.4 -1.1,0.8 -1.9,1.2c-0.7,-1.2 -1.8,-2.2 -3.2,-2.6c-2.4,-0.7 -4.7,0.1 -6.4,1.3c-0.9,0.7 -1.9,1.5 -2.5,2.3c-0.2,0.3 -0.3,0.8 -0.7,0.8c-0.6,-1.2 -1.2,-2.2 -2.3,-2.8c-3.2,-1.7 -6.8,-0.2 -8.9,1.6c-0.8,0.7 -1.6,1.3 -2.2,2.1c-3.9,4.6 -7,11 -10.8,15.2c-0.9,0.5 -1.5,1.4 -2.7,1.8c-0.7,0.3 -2.2,0.6 -3.1,0.5c-1.1,-0.1 -2.1,-1.2 -2.5,-2c-0.6,-1.3 -0.3,-2.4 0.2,-3.9c0.6,-2 1.1,-3.6 2.1,-5.1c1.4,-2.2 3.1,-4.3 4.4,-6.5c0.9,-1.5 2.1,-3 2.6,-4.7c0.1,-0.4 0.1,-1.2 0.1,-1.7c-0.6,-1.1 -1.8,-1.1 -2.8,-0.4c-0.7,0.5 -1.4,1.4 -2.1,2.1c-1.4,1.4 -2.8,2.8 -4.2,4.2c-2.8,2.8 -6,5.3 -9.5,7.2c-0.9,0.5 -1.8,1 -2.9,1.2c1.5,-5.3 2.5,-13.4 0.9,-19.6c-0.6,-2.2 -1.2,-3.4 -2.4,-4.9c-1.7,-2.2 -3.9,-4.3 -6.4,-5.6c-3.4,-1.7 -8.7,-2.7 -13.2,-1.8c-1.9,0.4 -3.7,1.2 -5.3,2.1c-2.3,1.3 -4.6,2.8 -6.3,4.7c-1.8,1.9 -3,4.3 -4.5,6.5c-0.5,1.4 -1,2.9 -1.3,4.5c-0.3,1.6 -0.3,3.5 -0.1,5.1c0.3,3.6 2,6.1 3.8,8.2c-2.1,2.8 -4.2,5.7 -6.4,8.4c-0.9,0.8 -1.5,1.8 -2.4,2.6c-3.6,-2.4 -7.2,-4.7 -11.8,-6c-2.6,-0.7 -5.4,-0.2 -7.4,0.7c-2.3,1 -4.9,3.8 -3.7,7.2c0.5,1.4 1.3,2.4 2.3,3.6c2,2.3 4.3,3.4 7.6,4.2c1.6,0.4 3.5,0.7 5.2,0.6c3.2,-0.3 5.9,-1 8.1,-2.3c0.2,-0.2 0.8,-0.6 0.9,-0.6c0.3,0 1.2,0.7 1.5,0.9c1.5,1 3,1.9 4.7,2.7c2.1,1 4.8,2.1 7.4,2.4c3.1,0.4 6.6,0.4 9.4,-0.3c2.9,-0.7 5.1,-1.9 7.2,-3.4c0.3,-0.2 0.5,-0.6 0.8,-0.8c0.3,-0.3 0.7,-0.5 0.9,-0.7c0.6,-0.5 1.1,-1.1 1.6,-1.7c1,-1.2 2.1,-2.4 3,-3.6c1.7,-2.2 3,-4.6 4.3,-7.2c0.2,-0.3 0.3,-1 0.5,-1.2c0.2,-0.2 0.9,-0.4 1.3,-0.5c2.3,-0.8 4.1,-2.1 5.8,-3.2c0.7,-0.5 1.4,-1 2.2,-1.4c-0.4,1.7 -0.8,3.2 -1.2,4.8c-0.2,0.7 -0.2,1.6 -0.3,2.5c-0.1,0.9 -0.2,1.8 0,2.6c0.1,0.3 0.4,0.7 0.6,1.1c0.6,0.9 1.1,1.4 1.9,1.9c0.3,0.2 0.7,0.5 1,0.7c1.5,0.8 4.6,1.1 6.4,0.4c0.4,-0.1 0.9,-0.4 1.3,-0.6c1.5,-0.6 2.6,-1.4 3.8,-2.4c0.8,-0.6 1.6,-1.4 2.3,-2.1c1.5,-1.5 2.8,-3.2 4,-4.8c1.9,-2.4 3.7,-5.1 5.5,-7.7c0.6,-0.9 1.2,-2 2,-2.4c1.2,-0.7 3.7,-0.6 4.3,0.5c0.3,0.5 -0.1,1.7 -0.3,2.4c-0.3,0.7 -0.6,1.5 -0.8,2.1c-0.9,2.8 -2.4,5.6 -3.5,8c-0.7,1.4 -1.4,2.8 -1.7,4.1c-0.4,1.7 0.8,3.3 2.3,3.3c1.3,0 1.7,-1.5 2.3,-2.7c2.3,-4.5 4.3,-8.5 6.7,-12.9c0.5,-0.9 0.9,-1.8 1.4,-2.5c0.6,-0.9 1.4,-2.1 2.3,-2.4c1.5,-0.5 3.1,0 3.3,1.3c0.1,0.8 -0.2,1.3 -0.4,1.9c-0.4,1.1 -0.8,2.3 -1.2,3.3c-1,2.8 -2.4,5.7 -3.5,8.4c-0.5,1.3 -1.4,3.2 -1.3,4.5c0.1,1 0.8,1.7 1.7,1.6c1,-0.1 1.5,-0.9 1.9,-1.7c0.3,-0.4 0.5,-0.9 0.7,-1.3c1.4,-3 2.5,-5.6 3.8,-8.6c0.8,-1.8 1.9,-3.7 2.8,-5.5c0.8,-1.7 1.8,-4.2 3.4,-4.9c1.1,-0.5 2.5,-0.2 3.1,0.7c0.5,0.8 0.3,1.9 -0.1,2.9c-0.8,1.9 -1.4,3.7 -2.2,5.3c-1.1,2.4 -2.4,6.5 -1.5,9.6c0.5,1.7 1.5,2.7 3,3.3c3,0.2 4.7,-1.5 6.5,-2.9c0.7,-0.5 1.2,-1 1.8,-1.6c0.6,-0.6 1.1,-1.2 1.7,-1.7c0.7,1.5 1.6,3.2 3,4.1c0.3,0.2 0.8,0.4 1.2,0.6c1.6,0.8 4.4,0.4 5.8,-0.3c1.4,-0.7 2.6,-2.2 3.7,-3.5c0.8,-1 1.7,-2 2.4,-2.9c0.3,-0.3 0.4,-0.9 0.9,-0.9c0,1 -0.1,1.8 0,3c-0.1,-0.1 0,0 0.1,0.2c0.4,2 0.7,4.2 2.1,5.3c0.6,0.5 1.7,1 2.6,1.2c1.3,0.2 3.2,-0.2 4.2,-0.7c0.3,-0.2 0.8,-0.6 1.2,-0.9c1.2,-1 2.3,-2.3 3.2,-3.3c1.4,-1.7 2.4,-3.4 3.4,-5.3c1.8,-3.4 3.4,-6.9 4.9,-10.4c0.2,-0.5 0.4,-1.1 0.7,-1.5c0.8,0.7 2.3,1.2 3.7,1.2c0.5,0 1.1,-0.3 1.4,0c-2.1,2.3 -4.1,4.7 -5.4,7.7c-0.5,1 -0.9,2.3 -1,3.4c0,0.2 -0.1,1 -0.1,1.2c0,1 0.4,2.5 0.8,3.3c0.7,1.5 2.8,3 4.8,3.2c4,0.3 6,-1.2 8.3,-2.8c1.3,-0.9 2.5,-1.9 3.7,-2.8c0.4,-0.3 0.7,-0.8 1.2,-0.9c0.4,2 1.3,3.3 2.6,4.5c1.8,1.7 3.7,2.4 6.5,2.7c1,0.1 2.1,0 3,-0.2c3.5,-0.8 6.8,-2.6 9.5,-4.3c1.1,-0.7 2.1,-1.3 3,-2.2c0.3,-0.2 0.7,-0.6 0.6,-1.1c-0.8,-0.2 -1.3,0.6 -1.8,0.9c-0.6,0.4 -1.3,0.7 -2.1,1.1c-0.7,0.4 -1.4,0.7 -2.2,1.1c-1.5,0.7 -3.1,1.4 -4.7,1.7c-0.6,0.1 -1.4,0.1 -2.1,0.2c-0.7,0.1 -1.4,0.2 -2,0.1c-1,-0.1 -2,-0.6 -3.1,-0.8c-1.1,-0.9 -2.1,-1.6 -2.8,-2.9c-0.4,-0.8 -0.8,-2.1 -0.8,-3.2c0,-0.8 0.4,-1.8 0.8,-2.6c0.7,-1.7 1.5,-3.1 2.4,-4.5c0.5,-0.7 1.1,-1.4 1.4,-2.1c0.7,-1.5 0.5,-3.8 -1.4,-3.8c-1.1,0 -2.1,1.2 -2.7,1.9c-0.7,1 -1.3,1.9 -1.9,2.7c-1.3,1.9 -2.6,3.5 -3.9,5.3c-0.6,0.8 -1.4,1.6 -2.1,2.5c-0.7,0.9 -1.3,1.7 -2.2,2.4c-0.7,0.7 -1.5,1.5 -2.4,2.2c-0.8,0.5 -2.2,1.5 -3.1,1.5c-0.4,0 -0.9,-0.3 -1.3,-0.6c-0.9,-0.5 -1.4,-0.9 -1.6,-1.9c-0.7,-3 0.6,-4.7 1.9,-6.8c1.1,-1.7 3,-3.4 4.5,-4.8c1,-1 2.2,-2 3.2,-3c0.5,-0.5 1.3,-1.1 1.2,-1.9c-0.1,-0.7 -0.9,-1.1 -1.8,-1.1c-1.1,0 -2,0.6 -2.7,0.8c-0.6,0.2 -1.4,0.3 -2.2,0.6c-0.8,0.2 -1.6,0.4 -2.4,0.3c-0.7,-0.1 -1.8,-0.8 -2.2,-1.4c-0.8,-1 -0.9,-2.4 -1.6,-3.4c-0.3,-0.4 -0.8,-0.9 -1.3,-1.2c-2.5,-1.4 -4.4,1.5 -4.6,3.6c-0.1,0.9 0.4,1.7 0.3,2.8c0,0.9 -0.4,2 -0.7,2.9c-0.3,0.9 -0.5,1.9 -0.8,2.8c-0.6,1.8 -1.5,3.4 -2.3,4.9c-0.7,1.4 -1.6,3.1 -2.8,4.4c-0.6,0.7 -1.2,1.2 -1.9,1.7c-0.6,0.5 -1.5,1.3 -2.2,1.4c-0.5,0.1 -1.3,0 -1.7,-0.3c-0.3,-0.3 -0.7,-1.3 -0.8,-1.9c-0.6,-2.8 0.2,-4.9 0.9,-7.2c1.3,-4.6 2.7,-9.2 4.5,-13.2c1.3,-2.8 2.2,-5.7 3.3,-8.4c0.6,-1.4 1.2,-2.8 1.7,-4.2c0.5,-1.4 0.9,-2.9 1.6,-4.3c1,0.8 1.9,1.7 3,2.5c3.3,2.3 7.4,3.7 11.5,5.2c4.1,1.5 8.6,2.6 13.7,2.6c2.2,0 4.7,-0.3 6.6,-0.2c0,0.9 -0.7,1.5 -1.1,2.2c-0.6,1.1 -1.5,2.9 -0.1,3.9c1.3,0.9 3.2,-0.4 3.9,-1.1c0.8,-0.7 1.6,-2.1 2,-3.1c0.4,-1.1 0.2,-2.7 -0.3,-3.5c-0.8,-1.2 -2.7,-1.3 -4.6,-1.3c-2.3,-0.1 -4,-0.1 -6.3,-0.3c-2.5,-0.1 -4.7,-0.1 -6.9,-0.6c-1.4,-0.3 -2.8,-1 -4.4,-1.6c-1.4,-0.5 -2.8,-1.2 -4.2,-1.8c-2.1,-1 -3.9,-2.2 -5.6,-3.4c-0.6,-0.5 -1.2,-0.8 -1.7,-1.3c-0.6,-0.5 -1.2,-1.3 -1.8,-1.9c-0.4,-0.3 -1.7,-1.5 -1.7,-2c0,-0.3 0.3,-0.9 0.5,-1.3c0.6,-1.4 1.1,-2.5 1.7,-3.8c0.3,-0.7 0.8,-1.7 1.1,-2.6c0.5,-1.3 0.9,-2.3 0.9,-3.7c0,-0.3 0.1,-0.5 -0.1,-0.7c-0.6,-0.6 -1.8,0.2 -2.2,0.6c-1.1,0.9 -2,2.4 -2.7,3.8c-0.8,1.5 -1.5,3.1 -2.1,4.4c-0.5,-0.4 -0.9,-1 -1.1,-1.7c-0.5,-1.2 -0.9,-2.8 -1.3,-4.3c-0.4,-1.4 -0.8,-3.3 -1.8,-4c-0.3,-0.3 -1,-0.5 -1.6,-0.4c-1.1,0.1 -2.1,1.7 -2.4,2.7c-0.1,0.5 0,1.4 0.1,2c0.1,0.7 0.2,1.4 0.4,2.1c1.2,3.7 3.3,6.9 5.3,9.4c-2.9,6.9 -6.1,13.7 -9.3,20.9c-1.5,3.4 -3.3,6.7 -5.2,9.9c-1.3,2.3 -2.8,4.8 -4.4,6.9c-0.6,0.8 -1,1.6 -1.6,2.2c-0.5,0.5 -1.4,1.2 -2.1,1.6c-0.8,0.5 -2.2,0.4 -2.8,-0.1c-1.2,-0.8 -0.9,-2.5 -0.5,-4.1c0.2,-0.9 0.5,-1.8 0.7,-2.5c0.6,-1.6 1.1,-3.2 1.7,-4.8c0.9,-2.7 2.1,-5.5 3.2,-8.1c0.2,-0.4 0.5,-0.7 0.6,-1.1c0.6,-2.4 -1.5,-3.1 -2.9,-2.4c-1.8,0.9 -3.1,3.3 -3.9,5.3c-0.7,2.4 -1.6,4.6 -2.6,6.6m-121.7,16.7c-2.3,0.9 -5.7,1.7 -9.2,1.2c-0.5,-0.1 -1.4,-0.7 -1.9,-1.1c-1.1,-0.8 -2.4,-1.9 -1.8,-4c0.2,-0.9 1.5,-1.8 2.7,-1.8c1.1,0 2.4,0.4 3.4,0.7c2,0.6 3.6,1.8 5.3,2.9c0.9,0.5 1.7,1 2.4,1.7c-0.2,0.2 -0.7,0.3 -0.9,0.4m37.4,-5c-0.4,0.5 -0.7,1.2 -1.1,1.7c-0.5,0.6 -1.1,1.1 -1.7,1.7c-1.2,1.1 -2.4,2.1 -3.8,3.1c-0.7,0.5 -1.4,1 -2.2,1.2c-0.7,0.2 -1.6,0.2 -2.4,0.4c-2.2,0.4 -5,0.5 -7.5,0.2c-3.2,-0.5 -5.8,-1.6 -8,-3c3,-3.4 5.7,-7 8.6,-10.4c2.7,1.2 5.6,2.3 8.7,3.1c3.1,0.8 6.8,0.6 10.5,0.5c-0.2,0.4 -0.7,0.9 -1.1,1.5m6.8,-19.1c-0.1,1 -0.4,2.2 -0.6,3.3c-0.5,3.5 -1.6,6.1 -2.8,9c-4.2,0.6 -8.5,0.7 -12.4,-0.3c-2.2,-0.6 -4.1,-1.8 -5.6,-3.1c2.7,-5 6.3,-9.4 10.5,-13.1c1.4,-1.2 2.8,-2.5 4.3,-3.5c0.7,-0.4 1.5,-0.6 2.1,-1.3c-3.1,-1 -6,0.2 -8.4,1.5c-1.8,1 -3.4,2.1 -4.9,3.2c-1.6,1.1 -3.1,2.4 -4.3,3.7c-1.3,1.4 -2.4,3 -3.7,4.4c-0.8,-0.8 -1.2,-1.9 -1.6,-3.1c-0.2,-0.7 -0.7,-1.6 -0.7,-2.5c0,-0.5 0.1,-1.1 0.1,-1.6c0,-3.9 1.3,-7.1 3.2,-9.4c1,-1.3 2.4,-2.6 4,-3.3c1.7,-0.7 3.4,-1.5 5.4,-1.7c3.4,-0.3 6.3,0.8 8.4,2.1c1.9,1.1 3.5,2.1 4.7,4c1.3,2.1 1.8,5.1 2.1,8.3c0.1,1.2 0.3,2.4 0.2,3.4" />
   <path d="m26.1,45.400001c1.8,0 3.2,-0.1 4.6,-0.1c1.4,0 2.8,0 4.8,0.1c0.6,1.7 2,6.9 2.3,8l6.6,0l-10.6,-33.8l-6.4,0l1,3c-3.2,11 -6.5,20.6 -9.7,30.8l5.7,0c0.4,-3.2 0.9,-5.4 1.7,-8m4.7,-15.9l0,0c0.9,2.5 2.3,7 3.5,11.5c-1.6,0 -2.5,0.1 -3.4,0.1c-0.9,0 -1.8,0 -3.6,-0.1c0.3,-1 2.5,-8.5 3.5,-11.5" />
   <path d="m58.9,54.000001c4.6,0 8.2,-3.6 9.3,-5.1l-2.2,-2.2c-1,1.1 -3.1,2.7 -5.7,2.7c-4.8,0 -8.5,-4.5 -8.5,-12.8c0,-5.9 2,-13.4 8.2,-13.4c2.7,0 5,1.8 6.5,3.2l0,-6.5c-1.1,-0.5 -2.9,-0.9 -5.3,-0.9c-10.3,0 -15.9,10 -15.9,19c0.1,10.4 7.1,16 13.6,16" />
   <path d="m82.6,54.000001c4.6,0 8.2,-3.6 9.3,-5.1l-2.1,-2.1c-1,1.1 -3.1,2.7 -5.7,2.7c-4.8,0 -8.5,-4.5 -8.5,-12.8c0,-5.9 2,-13.4 8.2,-13.4c2.7,0 5,1.8 6.5,3.2l0,-6.5c-1.1,-0.5 -2.9,-0.9 -5.3,-0.9c-10.3,0 -15.9,10 -15.9,19c0,10.3 7,15.9 13.5,15.9" />
   <path d="m97.4,53.300001c0.6,-3.1 1,-5.3 1.8,-8c1.8,0 3.2,-0.1 4.6,-0.1c1.4,0 2.8,0 4.8,0.1c0.6,1.7 2,6.9 2.3,8l6.6,0l-10.6,-33.8l-6.4,0l1,3c-3.2,11 -6.5,20.6 -9.7,30.8l5.6,0zm6.6,-23.9l0,0c0.9,2.5 2.3,7 3.5,11.5c-1.6,0 -2.5,0.1 -3.4,0.1c-0.9,0 -1.8,0 -3.6,-0.1c0.3,-0.9 2.5,-8.4 3.5,-11.5" />
   <path d="m129,53.300001c10.5,0 14.2,-7.3 14.2,-17c0,-9.4 -3.8,-16.7 -13.9,-16.9l-9,0c0.1,5.8 0.1,11.5 0.1,17.3c0,5.5 -0.1,11 -0.2,16.5l8.8,0.1zm-2.5,-29.6c0.5,0 0.9,-0.1 1.6,-0.1c5.8,0 8.9,2.6 8.9,12.6c0,10.4 -3,12.9 -8.7,12.9c-0.8,0 -1.4,-0.1 -1.7,-0.1c0,-4.3 -0.1,-8.6 -0.1,-12.9c-0.2,-4.1 -0.1,-8.2 0,-12.4" />
   <path d="m148.2,40.400001c0,1.8 -0.1,10.9 -0.1,12.9l19.6,0l0,-4.9c-4.5,0.4 -9,0.4 -13.6,0.5c-0.1,-1.5 -0.1,-3 -0.1,-4.4c0,-1.9 0,-4.3 0.1,-6.3l8.8,0.3l0,-5.1l-8.7,0.3c-0.1,-2.6 -0.1,-3.6 -0.1,-4.4c0,-1.6 0,-4 0.1,-5.5c1.4,0 2,-0.1 2.9,-0.1c3.3,0 6.6,0.2 10,0.7l0,-5.1l-19.1,0c0.4,7.1 0.2,14.1 0.2,21.1" />
   <path d="m176.8,53.300001c0,-0.1 0,-0.8 0,-1.1c-0.1,-8.6 -0.3,-17.2 -0.4,-25.7l0.1,0c2.3,7.1 4.5,14.1 6.4,21.3l3.6,0c2.1,-7.2 4.3,-14.3 6.4,-21.3l0.1,0c-0.2,8.9 -0.1,17.9 -0.3,26.8l6.1,0c-0.4,-4.8 -0.4,-14.4 -0.4,-20.6c0,-7 0.1,-9.5 0.3,-13.3l-8.4,0c-1.5,6.1 -3.3,12.1 -5.1,18.1l-0.1,0c-1.8,-6.1 -3.5,-12.1 -5.3,-18.1l-8.1,0c0.1,5.2 0.2,8.2 0.2,12.8c0,11.1 -0.2,15.8 -0.6,21l5.5,0.1z" />
   <path d="m210.7,53.300001c-0.3,-3.9 -0.4,-13.4 -0.4,-17.7c0,-3.4 0.1,-12.8 0.3,-16.1l-6.5,0c0.2,3.3 0.3,12.7 0.3,16.1c0,4.3 0,13.8 -0.4,17.7l6.7,0z" />
   <path d="m221.7,45.300001c1.8,0 3.2,-0.1 4.6,-0.1c1.4,0 2.8,0 4.8,0.1c0.6,1.7 2,6.9 2.3,8l6.6,0l-10.6,-33.8l-6.4,0l1,3c-3.2,11 -6.5,20.6 -9.7,30.8l5.7,0c0.4,-3.2 0.9,-5.3 1.7,-8m4.7,-15.9l0,0c0.9,2.5 2.3,7 3.5,11.5c-1.6,0 -2.5,0.1 -3.4,0.1c-0.9,0 -1.8,0 -3.6,-0.1c0.3,-0.9 2.5,-8.4 3.5,-11.5" />
   <path d="m26.4,78.600001c0,6.7 -0.2,10.7 -0.4,18.1l6.5,0c-0.2,-4.2 -0.3,-8.7 -0.3,-12.7c0,-5.6 0.1,-11.2 0.1,-16.9c2.4,0.1 5.7,0.3 7.8,0.7l0,-4.9l-21.7,0l0,4.9c3.2,-0.5 4.2,-0.6 7.9,-0.7c0.2,3.9 0.1,7.7 0.1,11.5" />
   <path d="m52.6,67.200001c3.3,0 6.6,0.2 9.9,0.7l0,-5.1l-19.1,0c0.4,6.9 0.3,14 0.3,20.9c0,1.9 -0.1,10.9 -0.1,12.9l19.6,0l0,-4.9c-4.5,0.4 -9,0.4 -13.6,0.5c-0.1,-1.5 -0.1,-3 -0.1,-4.4c0,-1.9 0,-4.3 0.1,-6.3l8.8,0.3l0,-5.1l-8.7,0.3c-0.1,-2.6 -0.1,-3.6 -0.1,-4.4c0,-1.6 0,-4 0.1,-5.4c1.3,0.1 2,0 2.9,0" />
   <path d="m71.3,96.700001c0.6,-3.1 1,-5.3 1.8,-8c1.8,0 3.2,-0.1 4.6,-0.1c1.4,0 2.8,0 4.8,0.1c0.6,1.7 2,6.9 2.3,8l6.6,0l-10.6,-33.8l-6.4,0l1,3c-3.2,11 -6.5,20.6 -9.7,30.8l5.6,0zm6.6,-23.9l0,0c0.9,2.5 2.3,7 3.5,11.5c-1.6,0 -2.5,0.1 -3.4,0.1c-0.9,0 -1.8,0 -3.6,-0.1c0.3,-0.9 2.4,-8.4 3.5,-11.5" />
   <path d="m89.2,67.800001c3.2,-0.5 4.2,-0.6 7.9,-0.7c0.1,3.8 0,7.6 0.1,11.5c0,6.7 -0.2,10.7 -0.4,18.1l6.5,0c-0.2,-4.2 -0.3,-8.7 -0.3,-12.7c0,-5.6 0.1,-11.2 0.1,-16.9c2.4,0.1 5.7,0.3 7.8,0.7l0,-4.9l-21.7,0l0,4.9z" />
   <path d="m114.8,85.300001c0,2.8 0.1,8.7 -0.2,11.4l6.2,0c-0.1,-3.6 -0.1,-11.5 -0.1,-15.3l3.3,-0.1c2,5 4.1,10.1 5.7,15.4l7.1,0c-0.5,-1.3 -6.5,-14 -7.2,-16.4c2.6,-1.1 6.2,-3 6.2,-8.5c0,-6.1 -4.5,-9 -10.4,-9l-10.8,0c0.2,5 0.2,12.5 0.2,22.5m5.9,-18.4c0.8,-0.1 1.5,-0.1 1.8,-0.1c3.7,0 7.1,0.8 7.1,5.3c0,3.6 -2.8,5 -6.4,5c-1.5,0 -2,0 -2.6,0l0.1,-10.2z" />
   <path d="m150.7,97.300001c7.1,0 12.3,-7.1 12.3,-17.6c0,-10.5 -5.3,-17.6 -12.3,-17.6c-7.1,0 -12.3,7.1 -12.3,17.6c-0.1,10.5 5.2,17.6 12.3,17.6m-0.1,-31c3.7,0 6.1,4.7 6.1,13.4c0,8.7 -2.3,13.4 -6.1,13.4c-3.7,0 -6.1,-4.7 -6.1,-13.4c0.1,-8.7 2.4,-13.4 6.1,-13.4" />
 </g>
</svg>