<svg width="304.3" height="127" viewbox="0 0 304.3 127" xmlns="http://www.w3.org/2000/svg">
 <g fill="#fff">
  <path d="m31.499947,84.033294c-2.9,-1.4 -5.8,-2.6 -7.8,-4c-2.1,-1.4 -3.2,-2.8 -3.2,-4.7c0,-1.7 0.6,-2.8 1.8,-3.6c1.2,-0.8 3,-1.3 5.4,-1.3c4.3,0 6.9,0.8 9.9,1.8l0.8,0.3l2.6,-6.7l-0.8,-0.3c-3.1,-1.3 -6.6,-2.6 -12.7,-2.6c-4,0 -7.8,1 -10.7,3c-2.9,2.1 -4.9,5.3 -4.8,9.6c0,8.3 6.2,11.8 11.9,14.4c2.9,1.3 5.7,2.5 7.7,3.9c2,1.4 3.2,2.9 3.2,5.2c0,2.3 -1,3.6 -2.8,4.6c-1.7,1 -4.2,1.4 -6.8,1.4c-4.5,0 -7.5,-0.8 -11.1,-2.3l-0.8,-0.3l-2.8,7l0.7,0.4c2.9,1.6 7,3.1 14.1,3.1c0,0 0,0 0.1,0c4.8,0 9.3,-1 12.7,-3.3c3.4,-2.3 5.6,-6 5.6,-10.9c-0.3,-8.2 -6.5,-11.9 -12.2,-14.7z"/>
  <path d="m82.999947,92.133294c0,5.1 -1.3,8.3 -3.3,10.2c-2,2 -4.9,2.8 -8.4,2.8c-3.3,0 -6.2,-0.7 -8.2,-2.5c-2,-1.7 -3.3,-4.5 -3.3,-9.1l0,-30.2l-9,0l0,30.6c0,7.2 2.6,12.1 6.6,14.9c3.9,2.9 9,3.8 14,3.8c4.6,0 9.7,-1.1 13.7,-4.2c4,-3.1 6.7,-8.4 6.7,-16.3l0,-28.9l-8.8,0l0,28.9z"/>
  <path d="m163.699947,84.033294c-2.9,-1.4 -5.8,-2.6 -7.8,-4c-2.1,-1.4 -3.2,-2.8 -3.2,-4.7c0,-1.7 0.6,-2.8 1.8,-3.6c1.2,-0.8 3,-1.3 5.4,-1.3c4.3,0 6.9,0.8 9.9,1.8l0.8,0.3l2.6,-6.7l-0.8,-0.3c-3.1,-1.3 -6.6,-2.6 -12.7,-2.6c-4,0 -7.8,1 -10.7,3c-2.9,2.1 -4.9,5.3 -4.8,9.6c0,8.3 6.2,11.8 11.9,14.4c2.9,1.3 5.7,2.5 7.7,3.9c2,1.4 3.2,2.9 3.2,5.2c0,2.3 -1,3.6 -2.7,4.6c-1.7,1 -4.2,1.4 -6.8,1.4c-4.5,0 -7.5,-0.8 -11.1,-2.3l-0.8,-0.3l-2.8,7l0.7,0.4c2.9,1.6 7,3.1 14.1,3.1c0,0 0,0 0.1,0c4.8,0 9.3,-1 12.7,-3.3c3.4,-2.3 5.6,-6 5.6,-10.9c-0.3,-8.2 -6.6,-11.9 -12.3,-14.7z"/>
  <polygon points="184.39994049072266,63.43326950073242 184.39994049072266,64.33329391479492 184.39994049072266,112.03330612182617 193.19995880126953,112.03330612182617 193.19995880126953,63.43326950073242 "/>
  <path d="m122.399947,63.433294l-21.2,0l0,48.6l8.9,0l0,-41.2l10.9,0c3.4,0 5.6,0.8 7.1,2.2c1.4,1.4 2.2,3.6 2.2,6.7c-0.1,6.1 -3.7,8.8 -10.8,8.9l-2.4,0l0,7.5l2,0c6.8,0 11.9,-1.9 15.3,-4.9c3.4,-3 5.1,-7.3 5.1,-11.8c0,-5.1 -1.7,-9.2 -4.7,-11.9c-3.1,-2.7 -7.4,-4.1 -12.4,-4.1z"/>
  <path d="m12.199947,17.233294l0,-7.3l1.3,0l0,7.2c0,2.5 1.6,3.1 3.2,3.1c1.7,0 3.2,-0.8 3.2,-3.4l0,-6.8l1.3,0l0,6.9c0,3.6 -2.5,4.5 -4.5,4.5c-2.2,-0.2 -4.5,-1 -4.5,-4.2z"/>
  <path d="m23.999947,12.433294l1.2,0l0,1c0.9,-0.7 1.7,-1.2 3.1,-1.2c2.5,0 2.6,1.8 2.6,3.3l0,5.6l-1.2,0l0,-5.3c0,-1.5 -0.2,-2.4 -1.7,-2.4c-1.1,0 -2,0.5 -2.8,1.1l0,6.7l-1.2,0l0,-8.8z"/>
  <path d="m33.499947,12.433294l1.3,0l0,8.6l-1.3,0l0,-8.6zm0,-1.9l0,-1.5l1.2,0l0,1.5l-1.2,0z"/>
  <path d="m36.399947,12.433294l1.4,0l1.8,5.9l0.6,1.8l0.6,-1.9l2.1,-5.9l1.3,0l-3.1,8.6l-1.7,0l-3,-8.5z"/>
  <path d="m45.099947,16.933294c0,-3.4 1.7,-4.7 3.8,-4.7c2.2,0 3.2,1.4 3.2,4.3l0,0.5l-5.7,0c0,2.7 1.4,3.2 3,3.2c0.8,0 1.5,-0.1 2.3,-0.4l0.2,1c-0.6,0.3 -1.6,0.5 -2.7,0.5c-2.5,-0.1 -4.1,-1.1 -4.1,-4.4zm5.7,-0.9c0,-1.8 -0.6,-2.9 -2,-2.9c-1.3,0 -2.2,0.9 -2.4,2.9l4.4,0z"/>
  <path d="m54.299947,12.433294l1.3,0l0,1.2c0.4,-0.6 1.3,-1.3 2.5,-1.3c0.5,0 0.9,0.1 1,0.1l-0.2,1.1c-0.3,-0.1 -0.5,-0.1 -1,-0.1c-1,0 -1.8,0.7 -2.2,1.4l0,6.4l-1.3,0l0,-8.8l-0.1,0z"/>
  <path d="m59.699947,20.933294l0.2,-1.1c0.8,0.2 1.6,0.4 2.3,0.4c1.3,0 2.1,-0.5 2.1,-1.3c0,-1.9 -4.4,-1.4 -4.4,-4.2c0,-1.6 1.3,-2.4 2.9,-2.4c0.7,0 1.6,0.1 2.2,0.4l-0.3,1c-0.6,-0.2 -1.3,-0.4 -1.9,-0.4c-1.2,0 -1.7,0.6 -1.7,1.3c0,2 4.3,1.4 4.3,4.3c0,1.9 -1.8,2.5 -3.4,2.5c-0.6,-0.2 -1.6,-0.3 -2.3,-0.5z"/>
  <path d="m67.499947,12.433294l1.3,0l0,8.6l-1.3,0l0,-8.6zm0,-1.9l0,-1.5l1.2,0l0,1.5l-1.2,0z"/>
  <path d="m71.799947,18.733294l0,-5.2l-1.3,0l0,-1.1l1.3,0l0,-1.8l1.2,0l0,1.8l2.7,0l0,1.1l-2.7,0l0,5.1c0,1.2 0.6,1.6 1.6,1.6c0.5,0 1.1,-0.1 1.5,-0.3l0.2,1c-0.4,0.2 -1.3,0.3 -1.8,0.3c-1.7,0 -2.7,-0.5 -2.7,-2.5z"/>
  <path d="m80.099947,21.133294l-0.6,0l-2.8,-8.6l1.4,0l1.9,6.2l0.5,1.6l0.5,-1.5l2.1,-6.2l1.3,0l-4.2,12.1l-1.2,0l1.1,-3.6z"/>
  <path d="m89.499947,16.833294c0,-3 1.6,-4.6 4,-4.6c2.5,0 3.8,1.6 3.8,4.5c0,3.1 -1.7,4.6 -3.9,4.6c-2.4,-0.1 -3.9,-1.6 -3.9,-4.5zm6.5,0c0,-1.6 -0.5,-3.5 -2.6,-3.5s-2.7,1.9 -2.7,3.5c0,1.8 0.6,3.5 2.7,3.5c2.1,-0.1 2.6,-1.8 2.6,-3.5z"/>
  <path d="m99.899947,13.433294l-1.3,0l0,-1l1.3,0l0,-0.6c0,-2.1 1.2,-2.9 2.8,-2.9c0.6,0 1,0.1 1.3,0.2l-0.2,1c-0.2,-0.1 -0.5,-0.1 -1.1,-0.1c-1.1,0 -1.6,0.5 -1.6,1.8l0,0.6l1.9,0l0,1l-1.9,0l0,7.6l-1.2,0l0,-7.6z"/>
  <path d="m111.999947,9.933294l1.7,0l4.1,11.2l-1.4,0l-1.5,-4.2l-4.4,0l-1.7,4.2l-1.4,0l4.6,-11.2zm2.5,5.9l-1.7,-5l-1.9,5l3.6,0z"/>
  <path d="m119.399947,12.433294l1.2,0l0,0.7c0.8,-0.5 1.5,-0.9 2.5,-0.9c2.1,0 3.4,1.6 3.4,4.4c0,3.5 -2,4.6 -4.3,4.6c-0.6,0 -1.3,-0.1 -1.6,-0.1l0,3.5l-1.2,0l0,-12.2zm5.9,4.3c0,-1.6 -0.5,-3.4 -2.4,-3.4c-1,0 -1.8,0.5 -2.3,0.8l0,5.9c0.3,0 1,0.2 1.6,0.2c2.2,0 3.1,-1.5 3.1,-3.5z"/>
  <path d="m128.699947,12.433294l1.3,0l0,0.7c0.8,-0.5 1.5,-0.9 2.5,-0.9c2.1,0 3.4,1.6 3.4,4.4c0,3.5 -2,4.6 -4.3,4.6c-0.6,0 -1.3,-0.1 -1.6,-0.1l0,3.5l-1.3,0l0,-12.2zm5.9,4.3c0,-1.6 -0.5,-3.4 -2.4,-3.4c-1,0 -1.8,0.5 -2.3,0.8l0,5.9c0.3,0 1,0.2 1.6,0.2c2.3,0 3.1,-1.5 3.1,-3.5z"/>
  <path d="m138.099947,9.133294l1.3,0l0,11.9l-1.3,0l0,-11.9z"/>
  <path d="m141.999947,12.433294l1.3,0l0,8.6l-1.3,0l0,-8.6zm0,-1.9l0,-1.5l1.2,0l0,1.5l-1.2,0z"/>
  <path d="m145.399947,16.933294c0,-3.4 1.7,-4.7 3.8,-4.7c2.2,0 3.2,1.4 3.2,4.3l0,0.5l-5.7,0c0,2.7 1.4,3.2 3,3.2c0.8,0 1.5,-0.1 2.3,-0.4l0.2,1c-0.6,0.3 -1.6,0.5 -2.7,0.5c-2.5,-0.1 -4.1,-1.1 -4.1,-4.4zm5.7,-0.9c0,-1.8 -0.6,-2.9 -2,-2.9c-1.3,0 -2.2,0.9 -2.4,2.9l4.4,0z"/>
  <path d="m154.099947,16.933294c0,-3.3 1.8,-4.7 4.3,-4.7c0.5,0 1,0.1 1.5,0.2l0,-3.3l1.3,0l0,11.9l-1.3,0l0,-0.8c-0.6,0.6 -1.3,1 -2.3,1c-1.4,0 -3.5,-0.7 -3.5,-4.3zm5.8,2.3l0,-5.7c-0.2,-0.1 -0.8,-0.3 -1.6,-0.3c-2.3,0 -2.9,1.8 -2.9,3.6c0,2.3 1,3.3 2.4,3.3c0.9,0.1 1.7,-0.6 2.1,-0.9z"/>
  <path d="m167.399947,20.533294l0.4,-1.1c0.8,0.4 1.7,0.7 2.7,0.7c1.2,0 2.6,-0.5 2.6,-1.9c0,-2.8 -5.5,-2 -5.5,-5.7c0,-1.8 1.6,-2.8 3.3,-2.8c1.3,0 2.1,0.3 2.8,0.6l-0.4,1c-0.7,-0.3 -1.4,-0.5 -2.3,-0.5c-1.2,0 -2.1,0.5 -2.1,1.6c0,2.5 5.6,2.1 5.6,5.7c0,2.1 -1.8,3.2 -4,3.2c-1.4,-0.1 -2.5,-0.4 -3.1,-0.8z"/>
  <path d="m175.999947,16.933294c0,-3.1 1.6,-4.7 4.1,-4.7c1.1,0 1.9,0.3 2.3,0.5l-0.4,1c-0.3,-0.1 -1,-0.4 -1.9,-0.4c-1.8,0 -2.8,1.2 -2.8,3.6c0,2.1 0.8,3.3 3.1,3.3c0.8,0 1.2,-0.1 1.8,-0.3l0.2,1c-0.5,0.2 -1.1,0.3 -2.1,0.3c-2.9,0 -4.3,-1.3 -4.3,-4.3z"/>
  <path d="m184.399947,12.433294l1.3,0l0,8.6l-1.3,0l0,-8.6zm0,-1.9l0,-1.5l1.2,0l0,1.5l-1.2,0z"/>
  <path d="m187.799947,16.933294c0,-3.4 1.7,-4.7 3.8,-4.7c2.2,0 3.2,1.4 3.2,4.3l0,0.5l-5.7,0c0,2.7 1.4,3.2 3,3.2c0.8,0 1.5,-0.1 2.3,-0.4l0.2,1c-0.6,0.3 -1.6,0.5 -2.7,0.5c-2.5,-0.1 -4.1,-1.1 -4.1,-4.4zm5.7,-0.9c0,-1.8 -0.6,-2.9 -2,-2.9c-1.3,0 -2.2,0.9 -2.4,2.9l4.4,0z"/>
  <path d="m196.999947,12.433294l1.3,0l0,1c0.9,-0.7 1.7,-1.2 3.1,-1.2c2.5,0 2.6,1.8 2.6,3.3l0,5.6l-1.2,0l0,-5.3c0,-1.5 -0.2,-2.4 -1.7,-2.4c-1.1,0 -2,0.5 -2.8,1.1l0,6.7l-1.3,0l0,-8.8z"/>
  <path d="m205.999947,16.933294c0,-3.1 1.6,-4.7 4.1,-4.7c1.1,0 1.9,0.3 2.3,0.5l-0.4,1c-0.3,-0.1 -1,-0.4 -1.9,-0.4c-1.8,0 -2.8,1.2 -2.8,3.6c0,2.1 0.8,3.3 3.2,3.3c0.8,0 1.2,-0.1 1.8,-0.3l0.2,1c-0.5,0.2 -1.1,0.3 -2.1,0.3c-3,0 -4.4,-1.3 -4.4,-4.3z"/>
  <path d="m213.899947,16.933294c0,-3.4 1.7,-4.7 3.8,-4.7c2.2,0 3.2,1.4 3.2,4.3l0,0.5l-5.7,0c0,2.7 1.4,3.2 3,3.2c0.8,0 1.5,-0.1 2.3,-0.4l0.2,1c-0.6,0.3 -1.6,0.5 -2.7,0.5c-2.5,-0.1 -4.1,-1.1 -4.1,-4.4zm5.7,-0.9c0,-1.8 -0.6,-2.9 -2,-2.9c-1.3,0 -2.2,0.9 -2.4,2.9l4.4,0z"/>
  <path d="m222.399947,20.933294l0.2,-1.1c0.8,0.2 1.6,0.4 2.3,0.4c1.3,0 2.1,-0.5 2.1,-1.3c0,-1.9 -4.4,-1.4 -4.4,-4.2c0,-1.6 1.3,-2.4 2.9,-2.4c0.7,0 1.5,0.1 2.2,0.4l-0.3,1c-0.6,-0.2 -1.3,-0.4 -1.9,-0.4c-1.2,0 -1.7,0.6 -1.7,1.3c0,2 4.3,1.4 4.3,4.3c0,1.9 -1.8,2.5 -3.4,2.5c-0.7,-0.2 -1.7,-0.3 -2.3,-0.5z"/>
  <path d="m233.599947,18.833294c0,-2.2 1.9,-2.6 3.3,-2.6l2.1,0l0,-1.1c0,-1.4 -0.7,-1.7 -2,-1.7c-0.9,0 -1.6,0.2 -2.3,0.4l-0.3,-1c0.7,-0.3 1.6,-0.5 2.8,-0.5c1.9,0 3.1,0.7 3.1,2.4l0,4.8c0,0.6 0.5,0.8 0.9,0.8l0,1c-0.1,0 -0.2,0 -0.3,0c-0.8,0 -1.6,-0.3 -1.7,-1.1c-0.4,0.3 -1.4,1.1 -2.9,1.1c-1.7,-0.1 -2.7,-1 -2.7,-2.5zm5.4,0.4l0,-2.2l-2.1,0.1c-1.3,0 -2.1,0.6 -2.1,1.7c0,1 0.7,1.5 1.7,1.5c0.9,-0.1 1.8,-0.6 2.5,-1.1z"/>
  <path d="m242.999947,12.433294l1.2,0l0,1c0.9,-0.7 1.7,-1.2 3.1,-1.2c2.5,0 2.6,1.8 2.6,3.3l0,5.6l-1.2,0l0,-5.3c0,-1.5 -0.2,-2.4 -1.7,-2.4c-1.1,0 -2,0.5 -2.8,1.1l0,6.7l-1.2,0l0,-8.8z"/>
  <path d="m251.999947,16.933294c0,-3.3 1.8,-4.7 4.3,-4.7c0.5,0 1,0.1 1.5,0.2l0,-3.3l1.3,0l0,11.9l-1.3,0l0,-0.8c-0.6,0.6 -1.3,1 -2.3,1c-1.4,0 -3.5,-0.7 -3.5,-4.3zm5.9,2.3l0,-5.7c-0.2,-0.1 -0.8,-0.3 -1.6,-0.3c-2.3,0 -2.9,1.8 -2.9,3.6c0,2.3 1,3.3 2.4,3.3c0.8,0.1 1.7,-0.6 2.1,-0.9z"/>
  <path d="m269.199947,9.933294l1.7,0l4.1,11.2l-1.4,0l-1.5,-4.2l-4.4,0l-1.7,4.2l-1.4,0l4.6,-11.2zm2.5,5.9l-1.7,-5l-1.9,5l3.6,0z"/>
  <path d="m276.499947,12.433294l1.3,0l0,1.2c0.4,-0.6 1.3,-1.3 2.5,-1.3c0.5,0 0.9,0.1 1,0.1l-0.2,1.1c-0.3,-0.1 -0.5,-0.1 -1,-0.1c-1,0 -1.8,0.7 -2.3,1.4l0,6.4l-1.3,0l0,-8.8z"/>
  <path d="m282.999947,18.733294l0,-5.2l-1.3,0l0,-1.1l1.3,0l0,-1.8l1.2,0l0,1.8l2.7,0l0,1.1l-2.7,0l0,5.1c0,1.2 0.6,1.6 1.6,1.6c0.5,0 1.1,-0.1 1.5,-0.3l0.2,1c-0.4,0.2 -1.3,0.3 -1.8,0.3c-1.7,0 -2.7,-0.5 -2.7,-2.5z"/>
  <path d="m288.299947,20.933294l0.2,-1.1c0.8,0.2 1.6,0.4 2.3,0.4c1.3,0 2.1,-0.5 2.1,-1.3c0,-1.9 -4.4,-1.4 -4.4,-4.2c0,-1.6 1.3,-2.4 2.9,-2.4c0.7,0 1.6,0.1 2.2,0.4l-0.3,1c-0.6,-0.2 -1.3,-0.4 -1.9,-0.4c-1.2,0 -1.7,0.6 -1.7,1.3c0,2 4.3,1.4 4.3,4.3c0,1.9 -1.8,2.5 -3.4,2.5c-0.7,-0.2 -1.7,-0.3 -2.3,-0.5z"/>
  <path d="m11.499947,38.633294c0,-3 1.6,-4.6 4,-4.6c2.5,0 3.8,1.6 3.8,4.5c0,3.1 -1.7,4.6 -3.9,4.6c-2.4,-0.1 -3.9,-1.7 -3.9,-4.5zm6.5,-0.1c0,-1.6 -0.5,-3.5 -2.6,-3.5c-2.1,0 -2.7,1.9 -2.7,3.5c0,1.8 0.6,3.5 2.7,3.5c2.1,0 2.6,-1.8 2.6,-3.5z"/>
  <path d="m21.899947,35.233294l-1.3,0l0,-1l1.3,0l0,-0.6c0,-2.1 1.2,-2.9 2.8,-2.9c0.6,0 1,0.1 1.3,0.2l-0.2,1c-0.2,-0.1 -0.5,-0.1 -1.1,-0.1c-1.1,0 -1.6,0.5 -1.6,1.8l0,0.6l1.9,0l0,1l-1.9,0l0,7.6l-1.2,0l0,-7.6z"/>
  <path d="m30.199947,42.333294l0.4,-1.1c0.8,0.4 1.7,0.7 2.7,0.7c1.2,0 2.6,-0.5 2.6,-1.9c0,-2.8 -5.5,-2 -5.5,-5.7c0,-1.8 1.6,-2.8 3.3,-2.8c1.3,0 2.1,0.3 2.8,0.6l-0.4,1c-0.7,-0.3 -1.4,-0.5 -2.3,-0.5c-1.2,0 -2.1,0.5 -2.1,1.6c0,2.5 5.6,2.1 5.6,5.7c0,2.1 -1.8,3.1 -4,3.1c-1.4,0 -2.5,-0.4 -3.1,-0.7z"/>
  <path d="m38.799947,38.633294c0,-3 1.6,-4.6 4,-4.6c2.5,0 3.8,1.6 3.8,4.5c0,3.1 -1.7,4.6 -3.9,4.6c-2.4,-0.1 -3.9,-1.7 -3.9,-4.5zm6.6,-0.1c0,-1.6 -0.5,-3.5 -2.6,-3.5c-2.1,0 -2.7,1.9 -2.7,3.5c0,1.8 0.6,3.5 2.7,3.5c2.1,0 2.6,-1.8 2.6,-3.5z"/>
  <path d="m48.699947,39.733294l0,-5.5l1.2,0l0,5.3c0,1.4 0.1,2.4 1.7,2.4c1.1,0 2.1,-0.6 2.8,-1.1l0,-6.6l1.2,0l0,8.6l-1.2,0l0,-1c-0.8,0.6 -1.7,1.2 -3.1,1.2c-2.4,0 -2.6,-1.8 -2.6,-3.3z"/>
  <path d="m58.599947,40.433294l0,-5.1l-1.3,0l0,-1.1l1.3,0l0,-1.8l1.2,0l0,1.8l2.7,0l0,1.1l-2.7,0l0,5.1c0,1.2 0.6,1.6 1.6,1.6c0.5,0 1.1,-0.1 1.5,-0.3l0.2,1c-0.4,0.2 -1.3,0.3 -1.8,0.3c-1.7,0 -2.7,-0.5 -2.7,-2.6z"/>
  <path d="m64.599947,30.933294l1.2,0l0,4.3c0.7,-0.5 1.7,-1.2 3.1,-1.2c2.5,0 2.6,1.8 2.6,3.3l0,5.6l-1.2,0l0,-5.3c0,-1.5 -0.3,-2.4 -1.7,-2.4c-1.1,0 -2,0.6 -2.8,1.1l0,6.7l-1.2,0l0,-12.1z"/>
  <path d="m73.699947,38.733294c0,-3.4 1.7,-4.7 3.8,-4.7c2.2,0 3.2,1.4 3.2,4.3l0,0.5l-5.7,0c0,2.7 1.4,3.2 3,3.2c0.8,0 1.5,-0.1 2.3,-0.4l0.2,1c-0.6,0.3 -1.6,0.5 -2.7,0.5c-2.6,-0.1 -4.1,-1.1 -4.1,-4.4zm5.6,-0.9c0,-1.8 -0.6,-2.9 -2,-2.9c-1.2,0 -2.2,0.9 -2.4,2.9l4.4,0z"/>
  <path d="m82.799947,34.233294l1.3,0l0,1.2c0.4,-0.6 1.3,-1.3 2.5,-1.3c0.5,0 0.9,0.1 1,0.1l-0.2,1.1c-0.3,-0.1 -0.5,-0.1 -1,-0.1c-1,0 -1.8,0.7 -2.2,1.4l0,6.4l-1.3,0l0,-8.8l-0.1,0z"/>
  <path d="m88.899947,34.233294l1.3,0l0,1c0.9,-0.7 1.7,-1.2 3.1,-1.2c2.5,0 2.6,1.8 2.6,3.3l0,5.6l-1.2,0l0,-5.3c0,-1.5 -0.2,-2.4 -1.7,-2.4c-1.1,0 -2,0.5 -2.8,1.1l0,6.7l-1.3,0l0,-8.8z"/>
  <path d="m101.999947,42.333294l0.4,-1.1c0.8,0.4 1.7,0.7 2.7,0.7c1.2,0 2.6,-0.5 2.6,-1.9c0,-2.8 -5.5,-2 -5.5,-5.7c0,-1.8 1.6,-2.8 3.3,-2.8c1.3,0 2.1,0.3 2.8,0.6l-0.4,1c-0.7,-0.3 -1.4,-0.5 -2.3,-0.5c-1.2,0 -2.1,0.5 -2.1,1.6c0,2.5 5.6,2.1 5.6,5.7c0,2.1 -1.8,3.1 -4,3.1c-1.4,0 -2.4,-0.4 -3.1,-0.7z"/>
  <path d="m110.199947,34.233294l1.3,0l2.2,7.7l2.3,-7.7l1.6,0l2.1,7.7l2.5,-7.7l1.3,0l-3,8.6l-1.7,0l-1.7,-6.3l-0.3,-1.2l-0.3,1.2l-2,6.3l-1.7,0l-2.6,-8.6z"/>
  <path d="m125.099947,34.233294l1.3,0l0,8.6l-1.3,0l0,-8.6zm0,-2l0,-1.5l1.2,0l0,1.5l-1.2,0z"/>
  <path d="m129.299947,40.433294l0,-5.1l-1.3,0l0,-1.1l1.3,0l0,-1.8l1.2,0l0,1.8l2.7,0l0,1.1l-2.7,0l0,5.1c0,1.2 0.6,1.6 1.6,1.6c0.5,0 1.1,-0.1 1.5,-0.3l0.2,1c-0.4,0.2 -1.3,0.3 -1.8,0.3c-1.7,0 -2.7,-0.5 -2.7,-2.6z"/>
  <path d="m134.599947,41.833294l5.1,-6.5l-4.7,0l0,-1.1l6.1,0l0,1l-5.1,6.5l5.2,0l0,1.1l-6.6,0l0,-1z"/>
  <path d="m142.699947,38.733294c0,-3.4 1.7,-4.7 3.8,-4.7c2.2,0 3.2,1.4 3.2,4.3l0,0.5l-5.7,0c0,2.7 1.4,3.2 3,3.2c0.8,0 1.5,-0.1 2.3,-0.4l0.2,1c-0.7,0.3 -1.6,0.5 -2.7,0.5c-2.5,-0.1 -4.1,-1.1 -4.1,-4.4zm5.7,-0.9c0,-1.8 -0.6,-2.9 -2,-2.9c-1.3,0 -2.2,0.9 -2.4,2.9l4.4,0z"/>
  <path d="m151.899947,34.233294l1.3,0l0,1.2c0.4,-0.6 1.3,-1.3 2.5,-1.3c0.5,0 0.9,0.1 1,0.1l-0.2,1.1c-0.3,-0.1 -0.5,-0.1 -1,-0.1c-1,0 -1.8,0.7 -2.2,1.4l0,6.4l-1.3,0l0,-8.8l-0.1,0z"/>
  <path d="m157.999947,30.933294l1.3,0l0,11.9l-1.3,0l0,-11.9z"/>
  <path d="m161.299947,40.533294c0,-2.2 1.9,-2.6 3.3,-2.6l2.1,0l0,-1.1c0,-1.4 -0.6,-1.7 -2,-1.7c-0.9,0 -1.6,0.2 -2.3,0.4l-0.3,-1c0.7,-0.3 1.6,-0.5 2.8,-0.5c1.9,0 3.1,0.7 3.1,2.4l0,4.8c0,0.6 0.5,0.8 0.9,0.8l0,1c-0.1,0 -0.2,0 -0.3,0c-0.8,0 -1.6,-0.3 -1.7,-1.1c-0.4,0.3 -1.4,1.1 -2.9,1.1c-1.7,0 -2.7,-0.9 -2.7,-2.5zm5.3,0.5l0,-2.2l-2.1,0.1c-1.3,0 -2.1,0.6 -2.1,1.7c0,1 0.7,1.5 1.7,1.5c1,-0.1 1.9,-0.6 2.5,-1.1z"/>
  <path d="m170.599947,34.233294l1.3,0l0,1c0.9,-0.7 1.7,-1.2 3.1,-1.2c2.4,0 2.6,1.8 2.6,3.3l0,5.6l-1.2,0l0,-5.3c0,-1.5 -0.2,-2.4 -1.7,-2.4c-1.1,0 -2,0.5 -2.8,1.1l0,6.7l-1.3,0l0,-8.8z"/>
  <path d="m179.699947,38.733294c0,-3.3 1.8,-4.7 4.3,-4.7c0.5,0 1,0.1 1.5,0.2l0,-3.3l1.3,0l0,11.9l-1.3,0l0,-0.8c-0.6,0.6 -1.3,1 -2.3,1c-1.4,0 -3.5,-0.7 -3.5,-4.3zm5.8,2.3l0,-5.7c-0.2,-0.1 -0.8,-0.3 -1.6,-0.3c-2.3,0 -2.9,1.8 -2.9,3.6c0,2.3 1,3.3 2.4,3.3c0.9,0 1.7,-0.6 2.1,-0.9z"/>

 </g>
</svg>